<svg width="1439" height="160" viewBox="0 0 1439 160" fill="none" xmlns="http://www.w3.org/2000/svg">
<g clip-path="url(#clip0_48_175)">
<rect width="1440" height="160" fill="#FCFFF4"/>
<path d="M1440 0H0V160H1440V0Z" fill="#FCFFF4"/>
<path fill-rule="evenodd" clip-rule="evenodd" d="M739 59C722.431 59 709 72.4314 709 89C709 105.569 722.431 119 739 119C755.569 119 769 105.569 769 89C769 72.4314 755.569 59 739 59ZM694 89C694 64.1472 714.147 44 739 44C763.853 44 784 64.1472 784 89C784 113.853 763.853 134 739 134C714.147 134 694 113.853 694 89Z" fill="#15762A"/>
<path fill-rule="evenodd" clip-rule="evenodd" d="M355 -17C338.431 -17 325 -3.56855 325 13C325 29.5686 338.431 43 355 43C371.569 43 385 29.5686 385 13C385 -3.56855 371.569 -17 355 -17ZM310 13C310 -11.8528 330.147 -32 355 -32C379.853 -32 400 -11.8528 400 13C400 37.8528 379.853 58 355 58C330.147 58 310 37.8528 310 13Z" fill="#15762A"/>
<path fill-rule="evenodd" clip-rule="evenodd" d="M560 0C543.431 0 530 13.4314 530 30C530 46.5686 543.431 60 560 60C576.569 60 590 46.5686 590 30C590 13.4314 576.569 0 560 0ZM515 30C515 5.14718 535.147 -15 560 -15C584.853 -15 605 5.14718 605 30C605 54.8528 584.853 75 560 75C535.147 75 515 54.8528 515 30Z" fill="#15762A" fill-opacity="0.8"/>
<path fill-rule="evenodd" clip-rule="evenodd" d="M659 -25C642.431 -25 629 -11.5686 629 5C629 21.5686 642.431 35 659 35C675.569 35 689 21.5686 689 5C689 -11.5686 675.569 -25 659 -25ZM614 5C614 -19.8528 634.147 -40 659 -40C683.853 -40 704 -19.8528 704 5C704 29.8528 683.853 50 659 50C634.147 50 614 29.8528 614 5Z" fill="#15762A"/>
<path fill-rule="evenodd" clip-rule="evenodd" d="M538 90C521.431 90 508 103.431 508 120C508 136.569 521.431 150 538 150C554.569 150 568 136.569 568 120C568 103.431 554.569 90 538 90ZM493 120C493 95.1472 513.147 75 538 75C562.853 75 583 95.1472 583 120C583 144.853 562.853 165 538 165C513.147 165 493 144.853 493 120Z" fill="#15762A"/>
<path fill-rule="evenodd" clip-rule="evenodd" d="M465 -45C448.431 -45 435 -31.5686 435 -15C435 1.56855 448.431 15 465 15C481.569 15 495 1.56855 495 -15C495 -31.5686 481.569 -45 465 -45ZM420 -15C420 -39.8528 440.147 -60 465 -60C489.853 -60 510 -39.8528 510 -15C510 9.85283 489.853 30 465 30C440.147 30 420 9.85283 420 -15Z" fill="#15762A"/>
<path fill-rule="evenodd" clip-rule="evenodd" d="M443 50C426.431 50 413 63.4314 413 80C413 96.5686 426.431 110 443 110C459.569 110 473 96.5686 473 80C473 63.4314 459.569 50 443 50ZM398 80C398 55.1472 418.147 35 443 35C467.853 35 488 55.1472 488 80C488 104.853 467.853 125 443 125C418.147 125 398 104.853 398 80Z" fill="#15762A" fill-opacity="0.8"/>
<path fill-rule="evenodd" clip-rule="evenodd" d="M429 143C412.431 143 399 156.431 399 173C399 189.569 412.431 203 429 203C445.569 203 459 189.569 459 173C459 156.431 445.569 143 429 143ZM384 173C384 148.147 404.147 128 429 128C453.853 128 474 148.147 474 173C474 197.853 453.853 218 429 218C404.147 218 384 197.853 384 173Z" fill="#15762A" fill-opacity="0.8"/>
<path fill-rule="evenodd" clip-rule="evenodd" d="M339 82C322.431 82 309 95.4314 309 112C309 128.569 322.431 142 339 142C355.569 142 369 128.569 369 112C369 95.4314 355.569 82 339 82ZM294 112C294 87.1472 314.147 67 339 67C363.853 67 384 87.1472 384 112C384 136.853 363.853 157 339 157C314.147 157 294 136.853 294 112Z" fill="#15762A" fill-opacity="0.55"/>
<path fill-rule="evenodd" clip-rule="evenodd" d="M242 104C225.431 104 212 117.431 212 134C212 150.569 225.431 164 242 164C258.569 164 272 150.569 272 134C272 117.431 258.569 104 242 104ZM197 134C197 109.147 217.147 89 242 89C266.853 89 287 109.147 287 134C287 158.853 266.853 179 242 179C217.147 179 197 158.853 197 134Z" fill="#15762A"/>
<path fill-rule="evenodd" clip-rule="evenodd" d="M249 8C232.431 8 219 21.4314 219 38C219 54.5686 232.431 68 249 68C265.569 68 279 54.5686 279 38C279 21.4314 265.569 8 249 8ZM204 38C204 13.1472 224.147 -7 249 -7C273.853 -7 294 13.1472 294 38C294 62.8528 273.853 83 249 83C224.147 83 204 62.8528 204 38Z" fill="#15762A" fill-opacity="0.8"/>
<path fill-rule="evenodd" clip-rule="evenodd" d="M152 82C135.431 82 122 95.4314 122 112C122 128.569 135.431 142 152 142C168.569 142 182 128.569 182 112C182 95.4314 168.569 82 152 82ZM107 112C107 87.1472 127.147 67 152 67C176.853 67 197 87.1472 197 112C197 136.853 176.853 157 152 157C127.147 157 107 136.853 107 112Z" fill="#15762A" fill-opacity="0.8"/>
<path fill-rule="evenodd" clip-rule="evenodd" d="M152.5 -17C135.931 -17 122.5 -3.56855 122.5 13C122.5 29.5686 135.931 43 152.5 43C169.069 43 182.5 29.5686 182.5 13C182.5 -3.56855 169.069 -17 152.5 -17ZM107.5 13C107.5 -11.8528 127.647 -32 152.5 -32C177.353 -32 197.5 -11.8528 197.5 13C197.5 37.8528 177.353 58 152.5 58C127.647 58 107.5 37.8528 107.5 13Z" fill="#15762A" fill-opacity="0.55"/>
<path fill-rule="evenodd" clip-rule="evenodd" d="M852 41C835.431 41 822 54.4314 822 71C822 87.5686 835.431 101 852 101C868.569 101 882 87.5686 882 71C882 54.4314 868.569 41 852 41ZM807 71C807 46.1472 827.147 26 852 26C876.853 26 897 46.1472 897 71C897 95.8528 876.853 116 852 116C827.147 116 807 95.8528 807 71Z" fill="#15762A" fill-opacity="0.55"/>
<path fill-rule="evenodd" clip-rule="evenodd" d="M942 0C925.431 0 912 13.4314 912 30C912 46.5686 925.431 60 942 60C958.569 60 972 46.5686 972 30C972 13.4314 958.569 0 942 0ZM897 30C897 5.14718 917.147 -15 942 -15C966.853 -15 987 5.14718 987 30C987 54.8528 966.853 75 942 75C917.147 75 897 54.8528 897 30Z" fill="#15762A"/>
<path fill-rule="evenodd" clip-rule="evenodd" d="M1020 65C1003.43 65 990 78.4314 990 95C990 111.569 1003.43 125 1020 125C1036.57 125 1050 111.569 1050 95C1050 78.4314 1036.57 65 1020 65ZM975 95C975 70.1472 995.147 50 1020 50C1044.85 50 1065 70.1472 1065 95C1065 119.853 1044.85 140 1020 140C995.147 140 975 119.853 975 95Z" fill="#15762A" fill-opacity="0.8"/>
<path fill-rule="evenodd" clip-rule="evenodd" d="M1098 131C1081.43 131 1068 144.431 1068 161C1068 177.569 1081.43 191 1098 191C1114.57 191 1128 177.569 1128 161C1128 144.431 1114.57 131 1098 131ZM1053 161C1053 136.147 1073.15 116 1098 116C1122.85 116 1143 136.147 1143 161C1143 185.853 1122.85 206 1098 206C1073.15 206 1053 185.853 1053 161Z" fill="#15762A"/>
<path fill-rule="evenodd" clip-rule="evenodd" d="M1395 21C1378.43 21 1365 34.4314 1365 51C1365 67.5686 1378.43 81 1395 81C1411.57 81 1425 67.5686 1425 51C1425 34.4314 1411.57 21 1395 21ZM1350 51C1350 26.1472 1370.15 6 1395 6C1419.85 6 1440 26.1472 1440 51C1440 75.8528 1419.85 96 1395 96C1370.15 96 1350 75.8528 1350 51Z" fill="#15762A" fill-opacity="0.55"/>
<path fill-rule="evenodd" clip-rule="evenodd" d="M1310 -31C1293.43 -31 1280 -17.5686 1280 -1C1280 15.5686 1293.43 29 1310 29C1326.57 29 1340 15.5686 1340 -1C1340 -17.5686 1326.57 -31 1310 -31ZM1265 -1C1265 -25.8528 1285.15 -46 1310 -46C1334.85 -46 1355 -25.8528 1355 -1C1355 23.8528 1334.85 44 1310 44C1285.15 44 1265 23.8528 1265 -1Z" fill="#15762A"/>
<path fill-rule="evenodd" clip-rule="evenodd" d="M1390 118C1373.43 118 1360 131.431 1360 148C1360 164.569 1373.43 178 1390 178C1406.57 178 1420 164.569 1420 148C1420 131.431 1406.57 118 1390 118ZM1345 148C1345 123.147 1365.15 103 1390 103C1414.85 103 1435 123.147 1435 148C1435 172.853 1414.85 193 1390 193C1365.15 193 1345 172.853 1345 148Z" fill="#15762A" fill-opacity="0.8"/>
<path fill-rule="evenodd" clip-rule="evenodd" d="M1300 73C1283.43 73 1270 86.4314 1270 103C1270 119.569 1283.43 133 1300 133C1316.57 133 1330 119.569 1330 103C1330 86.4314 1316.57 73 1300 73ZM1255 103C1255 78.1472 1275.15 58 1300 58C1324.85 58 1345 78.1472 1345 103C1345 127.853 1324.85 148 1300 148C1275.15 148 1255 127.853 1255 103Z" fill="#15762A"/>
<path fill-rule="evenodd" clip-rule="evenodd" d="M1210 14C1193.43 14 1180 27.4314 1180 44C1180 60.5686 1193.43 74 1210 74C1226.57 74 1240 60.5686 1240 44C1240 27.4314 1226.57 14 1210 14ZM1165 44C1165 19.1472 1185.15 -1 1210 -1C1234.85 -1 1255 19.1472 1255 44C1255 68.8528 1234.85 89 1210 89C1185.15 89 1165 68.8528 1165 44Z" fill="#15762A" fill-opacity="0.8"/>
<path fill-rule="evenodd" clip-rule="evenodd" d="M1199 111C1182.43 111 1169 124.431 1169 141C1169 157.569 1182.43 171 1199 171C1215.57 171 1229 157.569 1229 141C1229 124.431 1215.57 111 1199 111ZM1154 141C1154 116.147 1174.15 96 1199 96C1223.85 96 1244 116.147 1244 141C1244 165.853 1223.85 186 1199 186C1174.15 186 1154 165.853 1154 141Z" fill="#15762A" fill-opacity="0.55"/>
<path fill-rule="evenodd" clip-rule="evenodd" d="M1048 -37C1031.43 -37 1018 -23.5686 1018 -7C1018 9.56855 1031.43 23 1048 23C1064.57 23 1078 9.56855 1078 -7C1078 -23.5686 1064.57 -37 1048 -37ZM1003 -7C1003 -31.8528 1023.15 -52 1048 -52C1072.85 -52 1093 -31.8528 1093 -7C1093 17.8528 1072.85 38 1048 38C1023.15 38 1003 17.8528 1003 -7Z" fill="#15762A" fill-opacity="0.55"/>
<path fill-rule="evenodd" clip-rule="evenodd" d="M1115 28C1098.43 28 1085 41.4314 1085 58C1085 74.5686 1098.43 88 1115 88C1131.57 88 1145 74.5686 1145 58C1145 41.4314 1131.57 28 1115 28ZM1070 58C1070 33.1472 1090.15 13 1115 13C1139.85 13 1160 33.1472 1160 58C1160 82.8528 1139.85 103 1115 103C1090.15 103 1070 82.8528 1070 58Z" fill="#15762A"/>
<path fill-rule="evenodd" clip-rule="evenodd" d="M694 149C677.431 149 664 162.431 664 179C664 195.569 677.431 209 694 209C710.569 209 724 195.569 724 179C724 162.431 710.569 149 694 149ZM649 179C649 154.147 669.147 134 694 134C718.853 134 739 154.147 739 179C739 203.853 718.853 224 694 224C669.147 224 649 203.853 649 179Z" fill="#15762A" fill-opacity="0.8"/>
<path fill-rule="evenodd" clip-rule="evenodd" d="M633 73C616.431 73 603 86.4314 603 103C603 119.569 616.431 133 633 133C649.569 133 663 119.569 663 103C663 86.4314 649.569 73 633 73ZM588 103C588 78.1472 608.147 58 633 58C657.853 58 678 78.1472 678 103C678 127.853 657.853 148 633 148C608.147 148 588 127.853 588 103Z" fill="#15762A" fill-opacity="0.55"/>
<path fill-rule="evenodd" clip-rule="evenodd" d="M784 -31C767.431 -31 754 -17.5686 754 -1C754 15.5686 767.431 29 784 29C800.569 29 814 15.5686 814 -1C814 -17.5686 800.569 -31 784 -31ZM739 -1C739 -25.8528 759.147 -46 784 -46C808.853 -46 829 -25.8528 829 -1C829 23.8528 808.853 44 784 44C759.147 44 739 23.8528 739 -1Z" fill="#15762A" fill-opacity="0.8"/>
<path fill-rule="evenodd" clip-rule="evenodd" d="M930 104C913.431 104 900 117.431 900 134C900 150.569 913.431 164 930 164C946.569 164 960 150.569 960 134C960 117.431 946.569 104 930 104ZM885 134C885 109.147 905.147 89 930 89C954.853 89 975 109.147 975 134C975 158.853 954.853 179 930 179C905.147 179 885 158.853 885 134Z" fill="#15762A"/>
<path fill-rule="evenodd" clip-rule="evenodd" d="M814 130C797.431 130 784 143.431 784 160C784 176.569 797.431 190 814 190C830.569 190 844 176.569 844 160C844 143.431 830.569 130 814 130ZM769 160C769 135.147 789.147 115 814 115C838.853 115 859 135.147 859 160C859 184.853 838.853 205 814 205C789.147 205 769 184.853 769 160Z" fill="#15762A" fill-opacity="0.8"/>
<path fill-rule="evenodd" clip-rule="evenodd" d="M62 45C45.4314 45 32 58.4314 32 75C32 91.5686 45.4314 105 62 105C78.5686 105 92 91.5686 92 75C92 58.4314 78.5686 45 62 45ZM17 75C17 50.1472 37.1472 30 62 30C86.8528 30 107 50.1472 107 75C107 99.8528 86.8528 120 62 120C37.1472 120 17 99.8528 17 75Z" fill="#15762A"/>
<path fill-rule="evenodd" clip-rule="evenodd" d="M40 143C23.4314 143 10 156.431 10 173C10 189.569 23.4314 203 40 203C56.5686 203 70 189.569 70 173C70 156.431 56.5686 143 40 143ZM-5 173C-5 148.147 15.1472 128 40 128C64.8528 128 85 148.147 85 173C85 197.853 64.8528 218 40 218C15.1472 218 -5 197.853 -5 173Z" fill="#15762A"/>
<path fill-rule="evenodd" clip-rule="evenodd" d="M40 -49C23.4314 -49 10 -35.5686 10 -19C10 -2.43145 23.4314 11 40 11C56.5686 11 70 -2.43145 70 -19C70 -35.5686 56.5686 -49 40 -49ZM-5 -19C-5 -43.8528 15.1472 -64 40 -64C64.8528 -64 85 -43.8528 85 -19C85 5.85283 64.8528 26 40 26C15.1472 26 -5 5.85283 -5 -19Z" fill="#15762A" fill-opacity="0.8"/>
</g>
<defs>
<clipPath id="clip0_48_175">
<rect width="1440" height="160" fill="white"/>
</clipPath>
</defs>
</svg>
