<svg width="40" height="40" viewBox="0 0 40 40" fill="none" xmlns="http://www.w3.org/2000/svg">
<path d="M7.304 0C3.258 0 0 3.25779 0 7.30373V32.6962C0 36.7421 3.258 39.9999 7.304 39.9999H21.066V24.3625H16.9313V18.7325H21.066V13.9225C21.066 10.1435 23.5093 6.67373 29.1373 6.67373C31.416 6.67373 33.1013 6.89253 33.1013 6.89253L32.9687 12.15C32.9687 12.15 31.25 12.1338 29.3747 12.1338C27.3453 12.1338 27.02 13.0689 27.02 14.6213V18.7325H33.13L32.864 24.3625H27.02V40H32.696C36.742 40 40 36.7422 40 32.6963V7.3038C40 3.25783 36.742 4.00146e-05 32.696 4.00146e-05H7.304V0Z" fill="black"/>
</svg>
