<svg width="50" height="50" viewBox="0 0 50 50" fill="none" xmlns="http://www.w3.org/2000/svg">
<path d="M9.13 0C4.0725 0 0 4.07224 0 9.12967V40.8703C0 45.9277 4.0725 49.9999 9.13 49.9999H26.3325V30.4531H21.1642V23.4156H26.3325V17.4031C26.3325 12.6793 29.3867 8.34217 36.4217 8.34217C39.27 8.34217 41.3767 8.61567 41.3767 8.61567L41.2108 15.1875C41.2108 15.1875 39.0625 15.1673 36.7183 15.1673C34.1817 15.1673 33.775 16.3361 33.775 18.2766V23.4157H41.4125L41.08 30.4532H33.775V50H40.87C45.9275 50 50 45.9277 50 40.8703V9.12975C50 4.07229 45.9275 5.00182e-05 40.87 5.00182e-05H9.13V0Z" fill="black"/>
</svg>
