<svg width="50" height="50" viewBox="0 0 50 50" fill="none" xmlns="http://www.w3.org/2000/svg">
<path d="M24.9933 16.6631C20.4028 16.6631 16.6565 20.4094 16.6565 25C16.6565 29.5906 20.4028 33.3369 24.9933 33.3369C29.5838 33.3369 33.33 29.5906 33.33 25C33.33 20.4094 29.5838 16.6631 24.9933 16.6631ZM49.9972 25C49.9972 21.5477 50.0285 18.1266 49.8346 14.6805C49.6407 10.6778 48.7276 7.12542 45.8007 4.19844C42.8675 1.26522 39.3214 0.358351 35.3188 0.16447C31.8666 -0.0294106 28.4455 0.00186023 24.9995 0.00186023C21.5473 0.00186023 18.1262 -0.0294106 14.6802 0.16447C10.6776 0.358351 7.12529 1.27147 4.19837 4.19844C1.26519 7.13167 0.358344 10.6778 0.164467 14.6805C-0.0294104 18.1328 0.00186025 21.5539 0.00186025 25C0.00186025 28.4461 -0.0294104 31.8734 0.164467 35.3195C0.358344 39.3221 1.27144 42.8746 4.19837 45.8016C7.13154 48.7347 10.6776 49.6416 14.6802 49.8355C18.1325 50.0294 21.5535 49.9981 24.9995 49.9981C28.4518 49.9981 31.8728 50.0294 35.3188 49.8355C39.3214 49.6416 42.8738 48.7285 45.8007 45.8016C48.7339 42.8683 49.6407 39.3221 49.8346 35.3195C50.0347 31.8734 49.9972 28.4523 49.9972 25ZM24.9933 37.8274C17.8948 37.8274 12.1661 32.0986 12.1661 25C12.1661 17.9014 17.8948 12.1726 24.9933 12.1726C32.0916 12.1726 37.8204 17.9014 37.8204 25C37.8204 32.0986 32.0916 37.8274 24.9933 37.8274ZM38.3458 14.643C36.6885 14.643 35.3501 13.3046 35.3501 11.6472C35.3501 9.98983 36.6885 8.65141 38.3458 8.65141C40.0032 8.65141 41.3415 9.98983 41.3415 11.6472C41.342 12.0407 41.2649 12.4306 41.1145 12.7942C40.9641 13.1579 40.7435 13.4884 40.4651 13.7667C40.1869 14.0449 39.8565 14.2656 39.4928 14.416C39.1291 14.5663 38.7393 14.6435 38.3458 14.643Z" fill="black"/>
</svg>
